<svg width="27" height="27" viewBox="0 0 27 27" version="1.1" xmlns="http://www.w3.org/2000/svg" xmlns:xlink="http://www.w3.org/1999/xlink">
<title>content_icon</title>
<desc>Created using Figma</desc>
<g id="Canvas" transform="translate(-12565 -2327)">
<g id="content_icon">
<g id="content_icon">
<g id="Layer_1">
<g id="_Group_">
<g id="Paper_writing-link">
<g id="Paper_writing">
<g id="Shape">
<mask id="mask0_outline_ins">
<use xlink:href="#path0_fill" fill="white" transform="matrix(0.99998 -0.00628693 0.00628693 0.99998 12565.9 2327.96)"/>
</mask>
<g mask="url(#mask0_outline_ins)">
<use xlink:href="#path1_stroke_2x" transform="matrix(0.99998 -0.00628693 0.00628693 0.99998 12565.9 2327.96)" fill="#00FFF8"/>
</g>
</g>
<g id="Shape">
<use xlink:href="#path2_fill" transform="matrix(0.99998 -0.00628693 0.00628693 0.99998 12583.5 2342.63)" fill="#99999A"/>
</g>
<g id="Shape">
<use xlink:href="#path3_fill" transform="matrix(0.99998 -0.00628693 0.00628693 0.99998 12587.5 2335.75)" fill="#D3D3D3"/>
</g>
<g id="Shape">
<use xlink:href="#path4_fill" transform="matrix(0.99998 -0.00628693 0.00628693 0.99998 12576.4 2339.33)" fill="#00FFF8"/>
</g>
<g id="Shape">
<use xlink:href="#path5_fill" transform="matrix(0.99998 -0.00628693 0.00628693 0.99998 12587.5 2337.22)" fill="#939292"/>
</g>
<g id="Shape">
<use xlink:href="#path6_fill" transform="matrix(0.99998 -0.00628693 0.00628693 0.99998 12575.9 2351.46)" fill="#00FFF8"/>
</g>
<g id="Shape">
<use xlink:href="#path7_fill" transform="matrix(0.99998 -0.00628693 0.00628693 0.99998 12583.5 2335.21)" fill="#00FFF8"/>
</g>
</g>
</g>
</g>
</g>
</g>
</g>
</g>
<defs>
<path id="path0_fill" fill-rule="evenodd" d="M 0.447656 0L 20.5896 0C 20.8368 0 21.0372 0.190689 21.0372 0.425915L 21.0372 22.1351C 21.0372 22.2374 20.9945 22.3355 20.9184 22.4079C 20.8424 22.4803 20.7392 22.5209 20.6317 22.5209L 0.405524 22.5209C 0.297972 22.5209 0.194826 22.4803 0.118775 22.4079C 0.0427247 22.3355 -4.67763e-16 22.2374 0 22.1351L 0 0.425915C 4.67763e-16 0.190689 0.200423 0 0.447656 0Z"/>
<path id="path1_stroke_2x" d="M 0 22.1351L 3 22.1351L 0 22.1351ZM 0 0.425915L -3 0.425915L 0 0.425915ZM 0.447656 3L 20.5896 3L 20.5896 -3L 0.447656 -3L 0.447656 3ZM 20.5896 3C 19.3224 3 18.0372 1.98654 18.0372 0.425915L 24.0372 0.425915C 24.0372 -1.60516 22.3511 -3 20.5896 -3L 20.5896 3ZM 18.0372 0.425915L 18.0372 22.1351L 24.0372 22.1351L 24.0372 0.425915L 18.0372 0.425915ZM 18.0372 22.1351C 18.0372 21.3922 18.3488 20.7118 18.8505 20.2345L 22.9863 24.5813C 23.6402 23.9592 24.0372 23.0826 24.0372 22.1351L 18.0372 22.1351ZM 18.8505 20.2345C 19.3473 19.7619 19.9904 19.5209 20.6317 19.5209L 20.6317 25.5209C 21.488 25.5209 22.3375 25.1986 22.9863 24.5813L 18.8505 20.2345ZM 20.6317 19.5209L 0.405524 19.5209L 0.405524 25.5209L 20.6317 25.5209L 20.6317 19.5209ZM 0.405524 19.5209C 1.04676 19.5209 1.68995 19.7619 2.18666 20.2345L -1.94911 24.5813C -1.3003 25.1986 -0.450816 25.5209 0.405524 25.5209L 0.405524 19.5209ZM 2.18666 20.2345C 2.68844 20.7119 3 21.3922 3 22.1351L -3 22.1351C -3 23.0826 -2.60299 23.9592 -1.94911 24.5813L 2.18666 20.2345ZM 3 22.1351L 3 0.425915L -3 0.425915L -3 22.1351L 3 22.1351ZM 3 0.425915C 3 1.98653 1.71479 3 0.447656 3L 0.447656 -3C -1.31394 -3 -3 -1.60515 -3 0.425915L 3 0.425915Z"/>
<path id="path2_fill" fill-rule="evenodd" d="M 2.21892 1.7226C 2.49804 1.38938 1.99246 1.0737 1.4105 0.630247C 0.82855 0.186794 0.39406 -0.214067 0.114933 0.12917C -0.164194 0.472408 0.0833337 1.06618 0.66002 1.51966C 1.23671 1.97313 1.92662 2.05331 2.21892 1.7226Z"/>
<path id="path3_fill" fill-rule="evenodd" d="M 3.60495 1.81795C 3.39955 2.06849 4.00784 0.505128 3.48119 0.104266C 2.95453 -0.296595 1.49307 0.605343 1.69583 0.354805L 0 2.35911C 0.688803 2.77557 1.35093 3.23068 1.98285 3.72204L 3.60495 1.81795Z"/>
<path id="path4_fill" fill-rule="evenodd" d="M 0 12.174L 1.90649 13.6271L 12.0525 1.5812C 12.0999 0.90475 12.0025 0.38363 11.6838 0.160651C 11.3652 -0.0623283 10.6016 -0.0623283 10.0749 0.218275L 0 12.174Z"/>
<path id="path5_fill" fill-rule="evenodd" d="M 2.58061 1.59855C 2.58061 1.59855 2.8808 0.974705 2.05395 0.345854C 1.2271 -0.282998 0.663585 0.137907 0.663585 0.137907L 0 0.937125C 0 0.937125 0.637252 0.556306 1.39827 1.13505C 2.15928 1.71379 1.90649 2.38774 1.90649 2.38774L 2.58061 1.59855Z"/>
<path id="path6_fill" fill-rule="evenodd" d="M 0.560887 0.0517641C 0.560887 0.0517641 1.05068 -0.198774 1.83012 0.402518C 2.60957 1.00381 2.46738 1.50489 2.46738 1.50489L 0.292293 2.52207L 0.197495 2.34169L 0 2.30661L 0.560887 0.0517641Z"/>
<path id="path7_fill" fill-rule="evenodd" d="M 8.06813 2.0899C 8.35779 1.74666 8.67642 1.00507 7.8048 0.336132C 6.93319 -0.332806 6.26434 0.145723 5.96151 0.491466L 0.0866849 7.45894C -0.202975 7.80218 0.257848 7.50404 1.10313 8.14792C 1.94841 8.79181 1.89311 9.40061 2.1933 9.06489L 8.06813 2.0899Z"/>
</defs>
</svg>
