<svg width="14" height="15" viewBox="0 0 14 15" version="1.1" xmlns="http://www.w3.org/2000/svg" xmlns:xlink="http://www.w3.org/1999/xlink">
<title>&#239;&#129;&#128;</title>
<desc>Created using Figma</desc>
<g id="Canvas" transform="translate(-4851 -21705)">
<g id="&#239;&#129;&#128;">
<use xlink:href="#path0_fill" transform="translate(4851 21704)" fill="#979797"/>
</g>
</g>
<defs>
<path id="path0_fill" d="M 3.3817 14L 2.42634 14L 2.42634 12.8571L 1.28348 12.8571L 1.28348 11.9018L 2.09598 11.0893L 4.1942 13.1875L 3.3817 14ZM 8.05134 5.71429C 8.05134 5.76786 8.03348 5.82143 7.98884 5.86607L 3.14955 10.7054C 3.10491 10.75 3.05134 10.7679 2.99777 10.7679C 2.8817 10.7679 2.80134 10.6875 2.80134 10.5714C 2.80134 10.5179 2.8192 10.4643 2.86384 10.4196L 7.70312 5.58036C 7.74777 5.53571 7.80134 5.51786 7.85491 5.51786C 7.97098 5.51786 8.05134 5.59821 8.05134 5.71429ZM 7.5692 4L 0.140625 11.4286L 0.140625 15.1429L 3.85491 15.1429L 11.2835 7.71429L 7.5692 4ZM 13.6674 4.85714C 13.6674 4.55357 13.5424 4.25893 13.3371 4.04464L 11.2388 1.95536C 11.0246 1.74107 10.7299 1.61607 10.4263 1.61607C 10.1228 1.61607 9.82812 1.74107 9.62277 1.95536L 8.14062 3.42857L 11.8549 7.14286L 13.3371 5.66071C 13.5424 5.45536 13.6674 5.16071 13.6674 4.85714Z"/>
</defs>
</svg>
