<svg width="14" height="15" viewBox="0 0 14 15" version="1.1" xmlns="http://www.w3.org/2000/svg" xmlns:xlink="http://www.w3.org/1999/xlink">
<title>&#239;&#129;&#128;</title>
<desc>Created using Figma</desc>
<g id="Canvas" transform="translate(-26103 -901)">
<rect x="26103" y="901" width="14" height="15" fill="#FFFFFF"/>
<clipPath id="clip-0" clip-rule="evenodd">
<path d="M 25680 0L 27670 0L 27670 1200L 25680 1200L 25680 0Z" fill="#FFFFFF"/>
</clipPath>
<g id="Digital Signage Content New Slide Thumbs input8" clip-path="url(#clip-0)">
<path d="M 25680 0L 27670 0L 27670 1200L 25680 1200L 25680 0Z" fill="#EEEEEE"/>
<g id="Publication block">
<g id="Block bg" filter="url(#filter0_d)">
<use xlink:href="#path0_fill" transform="translate(25900 831)" fill="#FFFFFF"/>
</g>
<g id="Name field">
<g id="Input title">
<mask id="mask0_outline_ins">
<use xlink:href="#path1_fill" fill="white" transform="translate(26052 890)"/>
</mask>
<g mask="url(#mask0_outline_ins)">
<use xlink:href="#path2_stroke_2x" transform="translate(26052 890)" fill="#C5C5C5"/>
</g>
</g>
</g>
</g>
<g id="Solid 0.95">
<use xlink:href="#path3_fill" transform="translate(25680 0)" fill="#323A45" fill-opacity="0.95"/>
</g>
<g id="Popup">
<g id="Rectangle 3" filter="url(#filter1_d)">
<use xlink:href="#path4_fill" transform="translate(26033 214)" fill="#FFFFFF"/>
</g>
<g id="Categories">
<g id="Add category">
<g id="Add category">
<g id="&#239;&#129;&#128;">
<use xlink:href="#path5_fill" transform="translate(26103 900)" fill="#1DACFC"/>
</g>
</g>
</g>
</g>
</g>
</g>
</g>
<defs>
<filter id="filter0_d" filterUnits="userSpaceOnUse" x="25900" y="831" width="863" height="338" color-interpolation-filters="sRGB">
<feFlood flood-opacity="0" result="BackgroundImageFix"/>
<feColorMatrix in="SourceAlpha" type="matrix" values="0 0 0 0 0 0 0 0 0 0 0 0 0 0 0 0 0 0 255 0"/>
<feOffset dx="0" dy="2"/>
<feColorMatrix type="matrix" values="0 0 0 0 0.772549 0 0 0 0 0.772549 0 0 0 0 0.796078 0 0 0 1 0"/>
<feBlend mode="normal" in2="BackgroundImageFix" result="effect1_dropShadow"/>
<feBlend mode="normal" in="SourceGraphic" in2="effect1_dropShadow" result="shape"/>
</filter>
<filter id="filter1_d" filterUnits="userSpaceOnUse" x="26028" y="209" width="1290" height="783" color-interpolation-filters="sRGB">
<feFlood flood-opacity="0" result="BackgroundImageFix"/>
<feColorMatrix in="SourceAlpha" type="matrix" values="0 0 0 0 0 0 0 0 0 0 0 0 0 0 0 0 0 0 255 0"/>
<feOffset dx="0" dy="0"/>
<feGaussianBlur stdDeviation="2.5"/>
<feColorMatrix type="matrix" values="0 0 0 0 0 0 0 0 0 0 0 0 0 0 0 0 0 0 0.2 0"/>
<feBlend mode="normal" in2="BackgroundImageFix" result="effect1_dropShadow"/>
<feBlend mode="normal" in="SourceGraphic" in2="effect1_dropShadow" result="shape"/>
</filter>
<path id="path0_fill" fill-rule="evenodd" d="M 0 0L 863 0L 863 336L 0 336L 0 0Z"/>
<path id="path1_fill" fill-rule="evenodd" d="M 0 2C 0 0.89543 0.895431 0 2 0L 378 0C 379.105 0 380 0.895431 380 2L 380 33C 380 34.1046 379.105 35 378 35L 2 35C 0.895427 35 0 34.1046 0 33L 0 2Z"/>
<path id="path2_stroke_2x" d="M 2 1L 378 1L 378 -1L 2 -1L 2 1ZM 379 2L 379 33L 381 33L 381 2L 379 2ZM 378 34L 2 34L 2 36L 378 36L 378 34ZM 1 33L 1 2L -1 2L -1 33L 1 33ZM 2 34C 1.44771 34 1 33.5523 1 33L -1 33C -1 34.6569 0.343141 36 2 36L 2 34ZM 379 33C 379 33.5523 378.552 34 378 34L 378 36C 379.657 36 381 34.6569 381 33L 379 33ZM 378 1C 378.552 1 379 1.44771 379 2L 381 2C 381 0.343148 379.657 -1 378 -1L 378 1ZM 2 -1C 0.343146 -1 -1 0.343146 -1 2L 1 2C 1 1.44772 1.44772 1 2 1L 2 -1Z"/>
<path id="path3_fill" fill-rule="evenodd" d="M 0 0L 1990 0L 1990 1200L 0 1200L 0 0Z"/>
<path id="path4_fill" fill-rule="evenodd" d="M 0 4.99999C 0 2.23857 2.23858 0 5 0L 1275 0C 1277.76 0 1280 2.23858 1280 5L 1280 768C 1280 770.761 1277.76 773 1275 773L 5 773C 2.23858 773 0 770.761 0 768L 0 4.99999Z"/>
<path id="path5_fill" d="M 3.3817 14L 2.42634 14L 2.42634 12.8571L 1.28348 12.8571L 1.28348 11.9018L 2.09598 11.0893L 4.1942 13.1875L 3.3817 14ZM 8.05134 5.71429C 8.05134 5.76786 8.03348 5.82143 7.98884 5.86607L 3.14955 10.7054C 3.10491 10.75 3.05134 10.7679 2.99777 10.7679C 2.8817 10.7679 2.80134 10.6875 2.80134 10.5714C 2.80134 10.5179 2.8192 10.4643 2.86384 10.4196L 7.70312 5.58036C 7.74777 5.53571 7.80134 5.51786 7.85491 5.51786C 7.97098 5.51786 8.05134 5.59821 8.05134 5.71429ZM 7.5692 4L 0.140625 11.4286L 0.140625 15.1429L 3.85491 15.1429L 11.2835 7.71429L 7.5692 4ZM 13.6674 4.85714C 13.6674 4.55357 13.5424 4.25893 13.3371 4.04464L 11.2388 1.95536C 11.0246 1.74107 10.7299 1.61607 10.4263 1.61607C 10.1228 1.61607 9.82812 1.74107 9.62277 1.95536L 8.14062 3.42857L 11.8549 7.14286L 13.3371 5.66071C 13.5424 5.45536 13.6674 5.16071 13.6674 4.85714Z"/>
</defs>
</svg>
