<svg width="38" height="39" viewBox="0 0 38 39" version="1.1" xmlns="http://www.w3.org/2000/svg" xmlns:xlink="http://www.w3.org/1999/xlink">
<title>&#239;&#129;&#128;</title>
<desc>Created using Figma</desc>
<g id="Canvas" transform="translate(-17663 1579)">
<g id="&#239;&#129;&#128;">
<use xlink:href="#path0_fill" transform="translate(17663 -1582)" fill="#FFFFFF"/>
</g>
</g>
<defs>
<path id="path0_fill" d="M 9.04967 38L 6.42243 38L 6.42243 34.8571L 3.27958 34.8571L 3.27958 32.2299L 5.51395 29.9955L 11.284 35.7656L 9.04967 38ZM 21.8912 15.2143C 21.8912 15.3616 21.8421 15.5089 21.7193 15.6317L 8.41127 28.9397C 8.2885 29.0625 8.14118 29.1116 7.99386 29.1116C 7.67467 29.1116 7.45368 28.8906 7.45368 28.5714C 7.45368 28.4241 7.50279 28.2768 7.62556 28.154L 20.9336 14.846C 21.0564 14.7232 21.2037 14.6741 21.351 14.6741C 21.6702 14.6741 21.8912 14.8951 21.8912 15.2143ZM 20.5653 10.5L 0.136719 30.9286L 0.136719 41.1429L 10.351 41.1429L 30.7796 20.7143L 20.5653 10.5ZM 37.3354 12.8571C 37.3354 12.0223 36.9916 11.2121 36.4269 10.6228L 30.6568 4.87723C 30.0675 4.28795 29.2573 3.9442 28.4224 3.9442C 27.5876 3.9442 26.7773 4.28795 26.2126 4.87723L 22.1367 8.92857L 32.351 19.1429L 36.4269 15.067C 36.9916 14.5022 37.3354 13.692 37.3354 12.8571Z"/>
</defs>
</svg>
