<svg width="17" height="28" viewBox="0 0 17 28" version="1.1" xmlns="http://www.w3.org/2000/svg" xmlns:xlink="http://www.w3.org/1999/xlink">
<title>&#239;&#132;&#139;</title>
<desc>Created using Figma</desc>
<g id="Canvas" transform="translate(-12568 -2384)">
<g id="&#239;&#132;&#139;">
<use xlink:href="#path0_fill" transform="translate(12568 2373)" fill="#4ABBFF"/>
</g>
</g>
<defs>
<path id="path0_fill" d="M 10.0982 36.2143C 10.0982 37.1719 9.31473 37.9554 8.35714 37.9554C 7.39955 37.9554 6.61607 37.1719 6.61607 36.2143C 6.61607 35.2567 7.39955 34.4732 8.35714 34.4732C 9.31473 34.4732 10.0982 35.2567 10.0982 36.2143ZM 14.625 32.7321C 14.625 33.1021 14.2985 33.4286 13.9286 33.4286L 2.78571 33.4286C 2.41574 33.4286 2.08929 33.1021 2.08929 32.7321L 2.08929 17.4107C 2.08929 17.0407 2.41574 16.7143 2.78571 16.7143L 13.9286 16.7143C 14.2985 16.7143 14.625 17.0407 14.625 17.4107L 14.625 32.7321ZM 10.4464 14.2768C 10.4464 14.4727 10.2941 14.625 10.0982 14.625L 6.61607 14.625C 6.4202 14.625 6.26786 14.4727 6.26786 14.2768C 6.26786 14.0809 6.4202 13.9286 6.61607 13.9286L 10.0982 13.9286C 10.2941 13.9286 10.4464 14.0809 10.4464 14.2768ZM 16.7143 13.9286C 16.7143 12.4051 15.452 11.1429 13.9286 11.1429L 2.78571 11.1429C 1.26228 11.1429 0 12.4051 0 13.9286L 0 36.2143C 0 37.7377 1.26228 39 2.78571 39L 13.9286 39C 15.452 39 16.7143 37.7377 16.7143 36.2143L 16.7143 13.9286Z"/>
</defs>
</svg>
