<svg width="22" height="18" viewBox="0 0 22 18" version="1.1" xmlns="http://www.w3.org/2000/svg" xmlns:xlink="http://www.w3.org/1999/xlink">
<title>player-icon</title>
<desc>Created using Figma</desc>
<g id="Canvas" transform="translate(-29143 -371)">
<g id="player-icon">
<g id="Rectangle 2">
<use xlink:href="#path0_fill" transform="translate(29143 371)" fill="#FFFFFF" fill-opacity="0.01"/>
<mask id="mask0_outline_ins">
<use xlink:href="#path0_fill" fill="white" transform="translate(29143 371)"/>
</mask>
<g mask="url(#mask0_outline_ins)">
<use xlink:href="#path1_stroke_2x" transform="translate(29143 371)" fill="#4D4D4D"/>
</g>
</g>
<g id="Line">
<use xlink:href="#path2_stroke" transform="translate(29148 387)" fill="#4D4D4D"/>
</g>
</g>
</g>
<defs>
<path id="path0_fill" fill-rule="evenodd" d="M 0 1C 0 0.447715 0.447715 0 1 0L 21 0C 21.5523 0 22 0.447715 22 1L 22 14C 22 14.5523 21.5523 15 21 15L 1 15C 0.447715 15 0 14.5523 0 14L 0 1Z"/>
<path id="path1_stroke_2x" d="M 1 2L 21 2L 21 -2L 1 -2L 1 2ZM 20 1L 20 14L 24 14L 24 1L 20 1ZM 21 13L 1 13L 1 17L 21 17L 21 13ZM 2 14L 2 1L -2 1L -2 14L 2 14ZM 1 -2C -0.656854 -2 -2 -0.656854 -2 1L 2 1C 2 1.55228 1.55228 2 1 2L 1 -2ZM 21 2C 20.4477 2 20 1.55228 20 1L 24 1C 24 -0.656854 22.6569 -2 21 -2L 21 2ZM 20 14C 20 13.4477 20.4477 13 21 13L 21 17C 22.6569 17 24 15.6569 24 14L 20 14ZM 1 13C 1.55228 13 2 13.4477 2 14L -2 14C -2 15.6569 -0.656854 17 1 17L 1 13Z"/>
<path id="path2_stroke" d="M 0.428571 0L -0.571429 0L -0.571429 2L 0.428571 2L 0.428571 0ZM 11.5714 2L 12.5714 2L 12.5714 0L 11.5714 0L 11.5714 2ZM 0.428571 2L 11.5714 2L 11.5714 0L 0.428571 0L 0.428571 2Z"/>
</defs>
</svg>
