<svg width="33" height="41" viewBox="0 0 33 41" version="1.1" xmlns="http://www.w3.org/2000/svg" xmlns:xlink="http://www.w3.org/1999/xlink">
<title>Playlist icon</title>
<desc>Created using Figma</desc>
<g id="Canvas" transform="matrix(1.5 0 0 1.5 -6306 -29476.5)">
<g id="Playlist icon">
<g id="Rectangle-path">
<use xlink:href="#path0_fill" transform="translate(4204.56 19659.4)" fill="#769BFF"/>
</g>
<g id="Shape">
<mask id="mask0_outline_ins">
<use xlink:href="#path1_fill" fill="white" transform="translate(4204.56 19660.9)"/>
</mask>
<g mask="url(#mask0_outline_ins)">
<use xlink:href="#path2_stroke_2x" transform="translate(4204.56 19660.9)" fill="#769BFF"/>
</g>
</g>
<g id="Clapboard_top-link">
<g id="Clapboard_top">
<g id="Rectangle-path">
<use xlink:href="#path3_fill" transform="matrix(0.970728 -0.24018 0.24018 0.970728 4204.08 19656.5)" fill="#769BFF"/>
</g>
</g>
</g>
</g>
</g>
<defs>
<path id="path0_fill" fill-rule="evenodd" d="M 0 0L 21.09 0L 21.09 3.40863L 0 3.40863L 0 0Z"/>
<path id="path1_fill" fill-rule="evenodd" d="M 21.0879 0L 21.0879 15.3353C 21.0879 15.9243 20.6159 16.4017 20.0335 16.4017L 1.0544 16.4017C 0.472069 16.4017 5.85307e-17 15.9243 0 15.3353L 0 0L 21.0879 0Z"/>
<path id="path2_stroke_2x" d="M 21.0879 0L 24.0879 0L 24.0879 -3L 21.0879 -3L 21.0879 0ZM 0 0L 0 -3L -3 -3L -3 0L 0 0ZM 18.0879 0L 18.0879 15.3353L 24.0879 15.3353L 24.0879 0L 18.0879 0ZM 18.0879 15.3353C 18.0879 14.2996 18.927 13.4017 20.0335 13.4017L 20.0335 19.4017C 22.3047 19.4017 24.0879 17.5489 24.0879 15.3353L 18.0879 15.3353ZM 20.0335 13.4017L 1.0544 13.4017L 1.0544 19.4017L 20.0335 19.4017L 20.0335 13.4017ZM 1.0544 13.4017C 2.16093 13.4017 3 14.2996 3 15.3353L -3 15.3353C -3 17.5489 -1.21679 19.4017 1.0544 19.4017L 1.0544 13.4017ZM 3 15.3353L 3 0L -3 0L -3 15.3353L 3 15.3353ZM 0 3L 21.0879 3L 21.0879 -3L 0 -3L 0 3Z"/>
<path id="path3_fill" fill-rule="evenodd" d="M 0 0L 21.4796 0L 21.4796 2.062L 0 2.062L 0 0Z"/>
</defs>
</svg>
