<svg width="14" height="14" viewBox="0 0 14 14" version="1.1" xmlns="http://www.w3.org/2000/svg" xmlns:xlink="http://www.w3.org/1999/xlink">
<title>Combined Shape</title>
<desc>Created using Figma</desc>
<g id="Canvas" transform="translate(-2452 -776)">
<rect x="2452" y="776" width="14" height="14" fill="#FFFFFF"/>
<clipPath id="clip-0" clip-rule="evenodd">
<path d="M 2190 0L 4180 0L 4180 1200L 2190 1200L 2190 0Z" fill="#FFFFFF"/>
</clipPath>
<g id="Digital Signage Content List" clip-path="url(#clip-0)">
<path d="M 2190 0L 4180 0L 4180 1200L 2190 1200L 2190 0Z" fill="#EEEEEE"/>
<g id="Message list block">
<g id="Block bg" filter="url(#filter0_d)">
<use xlink:href="#path0_fill" transform="translate(2410 63)" fill="#FFFFFF"/>
</g>
<g id="Message list bottom gradient">
<use xlink:href="#path1_fill" transform="translate(2410 691)" fill="url(#paint1_linear)"/>
</g>
<g id="Button new slide">
<g id="Button new slide">
<g id="Rectangle 2">
<use xlink:href="#path2_fill" transform="translate(2436 763)" fill="#1DACFC"/>
</g>
<g id="Combined Shape">
<use xlink:href="#path3_fill" transform="translate(2452 776)" fill="#FFFFFF"/>
</g>
</g>
</g>
</g>
</g>
</g>
<defs>
<filter id="filter0_d" filterUnits="userSpaceOnUse" x="2410" y="63" width="863" height="759" color-interpolation-filters="sRGB">
<feFlood flood-opacity="0" result="BackgroundImageFix"/>
<feColorMatrix in="SourceAlpha" type="matrix" values="0 0 0 0 0 0 0 0 0 0 0 0 0 0 0 0 0 0 255 0"/>
<feOffset dx="0" dy="2"/>
<feColorMatrix type="matrix" values="0 0 0 0 0.772549 0 0 0 0 0.772549 0 0 0 0 0.796078 0 0 0 1 0"/>
<feBlend mode="normal" in2="BackgroundImageFix" result="effect1_dropShadow"/>
<feBlend mode="normal" in="SourceGraphic" in2="effect1_dropShadow" result="shape"/>
</filter>
<linearGradient id="paint1_linear" x1="0" y1="0" x2="1" y2="0" gradientUnits="userSpaceOnUse" gradientTransform="matrix(0 129 -863 0 431.5 0)">
<stop offset="0" stop-color="#FFFFFF" stop-opacity="0.01"/>
<stop offset="0.728456" stop-color="#FFFFFF"/>
</linearGradient>
<path id="path0_fill" fill-rule="evenodd" d="M 0 0L 863 0L 863 757L 833.387 757L 0 757L 0 0Z"/>
<path id="path1_fill" fill-rule="evenodd" d="M 0 0L 863 0L 863 129L 0 129L 0 0Z"/>
<path id="path2_fill" fill-rule="evenodd" d="M 0 2C 0 0.895431 0.895431 0 2 0L 120 0C 121.105 0 122 0.895431 122 2L 122 39C 122 40.1046 121.105 41 120 41L 2 41C 0.895431 41 0 40.1046 0 39L 0 2Z"/>
<path id="path3_fill" fill-rule="evenodd" d="M 8 0L 6 0L 6 6L 0 6L 0 8L 6 8L 6 14L 8 14L 8 8L 14 8L 14 6L 8 6L 8 0Z"/>
</defs>
</svg>
