<svg width="12" height="12" viewBox="0 0 12 12" version="1.1" xmlns="http://www.w3.org/2000/svg" xmlns:xlink="http://www.w3.org/1999/xlink">
<title>&#239;&#131;&#162;</title>
<desc>Created using Figma</desc>
<g id="Canvas" transform="translate(-960 -12257)">
<g id="&#239;&#131;&#162;">
<use xlink:href="#path0_fill" transform="translate(960 12256)" fill="#555555"/>
</g>
</g>
<defs>
<path id="path0_fill" d="M 12 7C 12 3.69531 9.30469 1 6 1C 4.46094 1 2.96875 1.61719 1.86719 2.65625L 0.851562 1.64844C 0.710938 1.5 0.492188 1.46094 0.3125 1.53906C 0.125 1.61719 0 1.79688 0 2L 0 5.5C 0 5.77344 0.226562 6 0.5 6L 4 6C 4.20312 6 4.38281 5.875 4.46094 5.6875C 4.53906 5.50781 4.5 5.28906 4.35156 5.14844L 3.28125 4.07031C 4.00781 3.39062 4.97656 3 6 3C 8.20312 3 10 4.79688 10 7C 10 9.20313 8.20312 11 6 11C 4.75781 11 3.60938 10.4375 2.84375 9.44531C 2.80469 9.39062 2.73438 9.35938 2.66406 9.35156C 2.59375 9.35156 2.52344 9.375 2.46875 9.42188L 1.39844 10.5C 1.3125 10.5859 1.30469 10.7344 1.38281 10.8359C 2.52344 12.2109 4.21094 13 6 13C 9.30469 13 12 10.3047 12 7Z"/>
</defs>
</svg>
