<svg width="13" height="17" viewBox="0 0 13 17" version="1.1" xmlns="http://www.w3.org/2000/svg" xmlns:xlink="http://www.w3.org/1999/xlink">
<title>Trash</title>
<desc>Created using Figma</desc>
<g id="Canvas" transform="translate(-2605 -775)">
<rect x="2605" y="775" width="13" height="17" fill="#FFFFFF"/>
<clipPath id="clip-0" clip-rule="evenodd">
<path d="M 2190 0L 4180 0L 4180 1200L 2190 1200L 2190 0Z" fill="#FFFFFF"/>
</clipPath>
<g id="Digital Signage Content List" clip-path="url(#clip-0)">
<path d="M 2190 0L 4180 0L 4180 1200L 2190 1200L 2190 0Z" fill="#EEEEEE"/>
<g id="Message list block">
<g id="Block bg" filter="url(#filter0_d)">
<use xlink:href="#path0_fill" transform="translate(2410 63)" fill="#FFFFFF"/>
</g>
<g id="Message list">
</g>
<g id="Message list bottom gradient">
<use xlink:href="#path1_fill" transform="translate(2410 691)" fill="url(#paint1_linear)"/>
</g>
<g id="Button delete">
<g id="Button delete">
<g id="Rectangle 2">
<use xlink:href="#path2_fill" transform="translate(2579 763)" fill="#FFFFFF"/>
<mask id="mask0_outline_ins">
<use xlink:href="#path2_fill" fill="white" transform="translate(2579 763)"/>
</mask>
<g mask="url(#mask0_outline_ins)">
<use xlink:href="#path3_stroke_2x" transform="translate(2579 763)" fill="#F53D3D"/>
</g>
</g>
<g id="Trash">
<g id="Shape">
<use xlink:href="#path4_fill" transform="translate(2605 775)" fill="#FF4040"/>
</g>
<g id="Shape">
<use xlink:href="#path5_fill" transform="translate(2609 783.016)" fill="#FF4040"/>
</g>
<g id="Shape">
<use xlink:href="#path6_fill" transform="translate(2611 783.016)" fill="#FF4040"/>
</g>
<g id="Shape">
<use xlink:href="#path7_fill" transform="translate(2613 783.016)" fill="#FF4040"/>
</g>
</g>
</g>
</g>
</g>
</g>
</g>
<defs>
<filter id="filter0_d" filterUnits="userSpaceOnUse" x="2410" y="63" width="863" height="759" color-interpolation-filters="sRGB">
<feFlood flood-opacity="0" result="BackgroundImageFix"/>
<feColorMatrix in="SourceAlpha" type="matrix" values="0 0 0 0 0 0 0 0 0 0 0 0 0 0 0 0 0 0 255 0"/>
<feOffset dx="0" dy="2"/>
<feColorMatrix type="matrix" values="0 0 0 0 0.772549 0 0 0 0 0.772549 0 0 0 0 0.796078 0 0 0 1 0"/>
<feBlend mode="normal" in2="BackgroundImageFix" result="effect1_dropShadow"/>
<feBlend mode="normal" in="SourceGraphic" in2="effect1_dropShadow" result="shape"/>
</filter>
<linearGradient id="paint1_linear" x1="0" y1="0" x2="1" y2="0" gradientUnits="userSpaceOnUse" gradientTransform="matrix(0 129 -863 0 431.5 0)">
<stop offset="0" stop-color="#FFFFFF" stop-opacity="0.01"/>
<stop offset="0.728456" stop-color="#FFFFFF"/>
</linearGradient>
<path id="path0_fill" fill-rule="evenodd" d="M 0 0L 863 0L 863 757L 833.387 757L 0 757L 0 0Z"/>
<path id="path1_fill" fill-rule="evenodd" d="M 0 0L 863 0L 863 129L 0 129L 0 0Z"/>
<path id="path2_fill" fill-rule="evenodd" d="M 0 2C 0 0.895431 0.895431 0 2 0L 120 0C 121.105 0 122 0.895431 122 2L 122 39C 122 40.1046 121.105 41 120 41L 2 41C 0.895431 41 0 40.1046 0 39L 0 2Z"/>
<path id="path3_stroke_2x" d="M 2 1L 120 1L 120 -1L 2 -1L 2 1ZM 121 2L 121 39L 123 39L 123 2L 121 2ZM 120 40L 2 40L 2 42L 120 42L 120 40ZM 1 39L 1 2L -1 2L -1 39L 1 39ZM 2 -1C 0.343146 -1 -1 0.343146 -1 2L 1 2C 1 1.44772 1.44772 1 2 1L 2 -1ZM 120 1C 120.552 1 121 1.44772 121 2L 123 2C 123 0.343146 121.657 -1 120 -1L 120 1ZM 121 39C 121 39.5523 120.552 40 120 40L 120 42C 121.657 42 123 40.6569 123 39L 121 39ZM 2 40C 1.44772 40 1 39.5523 1 39L -1 39C -1 40.6569 0.343146 42 2 42L 2 40Z"/>
<path id="path4_fill" fill-rule="evenodd" d="M 8.66116 1.92084C 8.53633 0.841331 7.61538 0 6.49998 0C 5.38462 0 4.4638 0.841298 4.33898 1.92084L 1.83647 1.92084C 0.823782 1.92084 0 2.74264 0 3.75256L 0 3.84654C 0 4.61832 0.481853 5.27889 1.16065 5.54805L 1.16065 14.2009C 1.16065 15.2109 1.98453 16.0327 2.99715 16.0327L 10.0029 16.0327C 11.0155 16.0327 11.8394 15.2108 11.8394 14.2009L 11.8394 5.54808C 12.5181 5.27889 13 4.61832 13 3.84658L 13 3.75259C 13 2.74264 12.1762 1.92084 11.1635 1.92084L 8.66116 1.92084ZM 7.78109 1.92081L 5.21924 1.92081C 5.33637 1.32209 5.86591 0.868652 6.50005 0.868652C 7.13439 0.868652 7.66393 1.32212 7.78109 1.92081ZM 10.0029 15.1641L 2.99721 15.1641C 2.46494 15.1641 2.03174 14.732 2.03174 14.201L 2.03174 5.67828L 10.9684 5.67828L 10.9684 14.201C 10.9684 14.732 10.5352 15.1641 10.0029 15.1641ZM 11.1636 4.8096L 1.83657 4.8096C 1.30429 4.8096 0.871094 4.37754 0.871094 3.84654L 0.871094 3.75255C 0.871094 3.22155 1.30429 2.78949 1.83657 2.78949L 11.1636 2.78949C 11.6959 2.78949 12.1291 3.22155 12.1291 3.75255L 12.1291 3.84654C 12.1291 4.37754 11.6959 4.8096 11.1636 4.8096Z"/>
<path id="path5_fill" fill-rule="evenodd" d="M 0.5 6.01224C 0.77615 6.01224 1 5.80921 1 5.55886L 1 0.453455C 1 0.2031 0.776111 0 0.5 0C 0.223889 0 0 0.2031 0 0.453455L 0 5.55886C -3.82585e-05 5.80925 0.22385 6.01224 0.5 6.01224Z"/>
<path id="path6_fill" fill-rule="evenodd" d="M 0.5 6.01224C 0.77615 6.01224 1 5.80921 1 5.55886L 1 0.453455C 1 0.2031 0.776111 0 0.5 0C 0.223889 0 0 0.2031 0 0.453455L 0 5.55886C 0 5.80925 0.22385 6.01224 0.5 6.01224Z"/>
<path id="path7_fill" fill-rule="evenodd" d="M 1 5.55886L 1 0.453455C 1 0.2031 0.776111 0 0.5 0C 0.223889 0 0 0.2031 0 0.453455L 0 5.55886C 0 5.80925 0.223927 6.01224 0.5 6.01224C 0.77615 6.01224 1 5.80921 1 5.55886Z"/>
</defs>
</svg>
