<svg width="13" height="15" viewBox="0 0 13 15" version="1.1" xmlns="http://www.w3.org/2000/svg" xmlns:xlink="http://www.w3.org/1999/xlink">
<title>&#239;&#135;&#184;</title>
<desc>Created using Figma</desc>
<g id="Canvas" transform="translate(-4876 -21623)">
<g id="&#239;&#135;&#184;">
<use xlink:href="#path0_fill" transform="translate(4876 21622)" fill="#858585"/>
</g>
</g>
<defs>
<path id="path0_fill" d="M 4.57143 12.5714C 4.57143 12.7321 4.44643 12.8571 4.28571 12.8571L 3.71429 12.8571C 3.55357 12.8571 3.42857 12.7321 3.42857 12.5714L 3.42857 6.28571C 3.42857 6.125 3.55357 6 3.71429 6L 4.28571 6C 4.44643 6 4.57143 6.125 4.57143 6.28571L 4.57143 12.5714ZM 6.85714 12.5714C 6.85714 12.7321 6.73214 12.8571 6.57143 12.8571L 6 12.8571C 5.83929 12.8571 5.71429 12.7321 5.71429 12.5714L 5.71429 6.28571C 5.71429 6.125 5.83929 6 6 6L 6.57143 6C 6.73214 6 6.85714 6.125 6.85714 6.28571L 6.85714 12.5714ZM 9.14286 12.5714C 9.14286 12.7321 9.01786 12.8571 8.85714 12.8571L 8.28571 12.8571C 8.125 12.8571 8 12.7321 8 12.5714L 8 6.28571C 8 6.125 8.125 6 8.28571 6L 8.85714 6C 9.01786 6 9.14286 6.125 9.14286 6.28571L 9.14286 12.5714ZM 4.28571 3.71429L 4.72321 2.66964C 4.75 2.63393 4.82143 2.58036 4.875 2.57143L 7.70536 2.57143C 7.75 2.58036 7.83036 2.63393 7.85714 2.66964L 8.28571 3.71429L 4.28571 3.71429ZM 12.5714 4C 12.5714 3.83929 12.4464 3.71429 12.2857 3.71429L 9.52679 3.71429L 8.90179 2.22321C 8.72321 1.78571 8.1875 1.42857 7.71429 1.42857L 4.85714 1.42857C 4.38393 1.42857 3.84821 1.78571 3.66964 2.22321L 3.04464 3.71429L 0.285714 3.71429C 0.125 3.71429 0 3.83929 0 4L 0 4.57143C 0 4.73214 0.125 4.85714 0.285714 4.85714L 1.14286 4.85714L 1.14286 13.3571C 1.14286 14.3393 1.78571 15.1429 2.57143 15.1429L 10 15.1429C 10.7857 15.1429 11.4286 14.3036 11.4286 13.3214L 11.4286 4.85714L 12.2857 4.85714C 12.4464 4.85714 12.5714 4.73214 12.5714 4.57143L 12.5714 4Z"/>
</defs>
</svg>
